<?xml version="1.0" standalone="no"?>
<!DOCTYPE svg PUBLIC "-//W3C//DTD SVG 20010904//EN"
 "http://www.w3.org/TR/2001/REC-SVG-20010904/DTD/svg10.dtd">
<svg version="1.0" xmlns="http://www.w3.org/2000/svg"
 width="600.000000pt" height="327.000000pt" viewBox="0 0 600.000000 327.000000"
 preserveAspectRatio="xMidYMid meet">
<g transform="translate(0.000000,327.000000) scale(0.100000,-0.100000)"
fill="#000000" stroke="none">
<path d="M1773 3033 c9 -2 25 -2 35 0 9 3 1 5 -18 5 -19 0 -27 -2 -17 -5z"/>
<path d="M2168 3033 c6 -2 18 -2 25 0 6 3 1 5 -13 5 -14 0 -19 -2 -12 -5z"/>
<path d="M4038 3033 c23 -2 61 -2 85 0 23 2 4 4 -43 4 -47 0 -66 -2 -42 -4z"/>
<path d="M4328 3033 c7 -3 16 -2 19 1 4 3 -2 6 -13 5 -11 0 -14 -3 -6 -6z"/>
<path d="M1690 1650 l0 -1290 1310 0 1310 0 0 1290 0 1290 -1310 0 -1310 0 0
-1290z m2600 0 l0 -1270 -1290 0 -1290 0 0 1270 0 1270 1290 0 1290 0 0 -1270z"/>
<path d="M2313 2560 c-74 -33 -101 -108 -67 -190 l14 -35 -4 38 c-7 54 10 92
49 113 76 41 166 -34 150 -125 -6 -38 -28 -78 -84 -157 -31 -43 -35 -55 -35
-114 0 -48 5 -76 22 -107 28 -54 48 -66 28 -18 -25 58 -21 147 8 203 31 59
119 133 177 149 40 11 117 7 134 -7 27 -23 27 -4 -1 30 -24 27 -32 31 -66 28
-29 -3 -37 0 -33 10 3 8 5 16 5 18 0 2 12 1 27 -2 l27 -7 -27 27 c-15 15 -27
33 -27 41 0 8 -5 17 -10 20 -7 4 -8 -7 -4 -33 4 -26 1 -49 -9 -69 l-16 -30 39
11 c29 7 43 7 51 -1 9 -9 5 -12 -17 -11 -16 1 -39 -2 -51 -6 -34 -11 -44 1
-27 32 20 38 17 72 -9 122 -43 82 -151 113 -244 70z m166 -15 c30 -15 81 -70
81 -86 0 -6 -19 10 -42 34 -24 24 -52 49 -63 55 -30 17 -8 14 24 -3z m-32 -16
c85 -53 85 -176 -1 -264 -22 -22 -33 -31 -25 -20 22 30 47 89 54 128 9 48 -16
98 -63 126 -27 16 -30 20 -12 15 14 -3 29 -10 35 -15 5 -5 14 -9 20 -9 5 0 -3
9 -20 20 -37 24 -102 26 -134 3 -18 -12 -23 -13 -19 -2 13 41 111 51 165 18z
m98 -133 c0 -53 -18 -91 -37 -80 -6 4 -6 9 2 14 17 11 24 84 11 122 -11 32
-11 32 6 15 13 -13 18 -33 18 -71z"/>
<path d="M2482 2440 c0 -8 4 -26 8 -40 6 -20 8 -21 8 -5 0 11 -3 29 -8 40 -5
12 -8 14 -8 5z"/>
<path d="M3545 2573 c-32 -8 -84 -51 -101 -85 -12 -23 -15 -47 -11 -85 6 -61
-4 -70 -21 -18 -7 23 -7 47 -1 68 13 46 12 46 -21 -4 -16 -24 -41 -59 -56 -76
-15 -18 -22 -33 -16 -33 6 0 22 15 37 33 25 31 26 31 40 13 17 -23 19 -36 6
-36 -5 0 -12 8 -14 18 -3 11 -5 7 -6 -10 0 -15 -5 -30 -11 -33 -5 -3 -10 -11
-10 -16 0 -6 10 -3 22 5 12 9 38 16 56 16 29 0 33 3 27 18 -4 9 -8 42 -10 72
-3 46 0 60 20 86 14 18 38 37 55 42 42 15 37 2 -11 -28 -23 -14 -46 -34 -52
-45 -9 -18 -8 -18 5 -7 14 11 15 9 8 -24 -5 -21 -5 -58 0 -83 7 -37 6 -48 -6
-56 -9 -5 -30 -21 -47 -33 l-32 -24 35 7 c82 18 130 -3 178 -79 22 -35 26 -52
26 -116 0 -42 -5 -85 -13 -98 -7 -13 -10 -26 -8 -28 3 -3 17 20 32 50 23 47
27 66 23 119 -3 57 -8 68 -55 130 -54 72 -72 128 -58 184 16 65 86 99 143 69
39 -20 45 -30 52 -86 l6 -45 10 45 c13 55 3 95 -33 132 -39 41 -118 58 -188
41z m159 -44 c34 -26 27 -37 -8 -14 -32 21 -110 16 -135 -9 -15 -16 -14 -16
17 0 46 22 51 11 7 -15 -60 -35 -72 -110 -30 -196 28 -58 26 -69 -6 -26 -17
23 -25 28 -32 19 -6 -9 -7 -7 -3 6 4 10 -1 38 -10 62 -24 62 -12 109 37 156
35 33 46 38 88 38 34 0 56 -6 75 -21z"/>
<path d="M3512 2410 c0 -14 2 -19 5 -12 2 6 2 18 0 25 -3 6 -5 1 -5 -13z"/>
<path d="M2345 2443 c-24 -6 -45 -22 -45 -35 0 -5 9 -4 21 2 16 9 26 8 45 -5
32 -21 33 -84 1 -140 -24 -41 -39 -75 -33 -75 7 0 76 107 85 133 15 40 14 79
-5 105 -15 22 -29 25 -69 15z m61 -28 c9 -14 14 -28 10 -32 -3 -3 -6 -1 -6 5
0 7 -9 21 -20 32 -11 11 -16 20 -10 20 5 0 17 -11 26 -25z"/>
<path d="M3603 2442 c-23 -14 -34 -62 -23 -100 9 -35 79 -146 87 -139 2 2 -10
30 -27 62 -37 70 -38 104 -5 135 22 21 29 22 45 12 24 -15 30 -15 30 -2 0 21
-84 46 -107 32z m27 -5 c0 -2 -10 -12 -21 -23 -22 -19 -22 -19 -8 4 12 19 29
30 29 19z"/>
<path d="M3271 2318 c-30 -47 -61 -117 -61 -134 0 -11 -7 -32 -15 -48 -19 -36
-19 -39 3 -27 9 5 44 15 77 22 63 13 130 37 123 44 -3 4 -82 -15 -168 -40 -22
-7 -20 -4 9 19 19 14 47 26 62 26 31 0 125 37 116 46 -3 4 -28 -1 -54 -11 -89
-31 -105 -35 -101 -23 2 6 12 12 22 14 22 3 146 85 146 97 0 13 -79 -32 -112
-64 -45 -42 -46 -28 -3 31 21 28 34 54 30 58 -11 11 -54 -47 -87 -118 -17 -36
-32 -60 -35 -53 -2 6 12 47 32 89 35 76 44 116 16 72z"/>
<path d="M2555 2284 c-22 -8 -44 -20 -50 -26 -7 -8 -4 -9 10 -3 47 17 91 16
128 -3 37 -20 48 -17 25 6 -19 19 -6 21 40 5 59 -19 64 -10 9 16 -50 24 -105
26 -162 5z"/>
<path d="M3186 2258 c-19 -48 -34 -163 -18 -138 14 21 51 180 42 180 -4 0 -15
-19 -24 -42z"/>
<path d="M3131 2233 c-7 -16 -15 -72 -18 -125 -8 -133 -29 -151 -24 -21 2 70
0 94 -9 88 -7 -5 -10 -42 -9 -116 2 -73 -2 -114 -9 -121 -9 -9 -12 -3 -12 27
0 75 -13 151 -21 130 -11 -29 -11 -95 1 -135 14 -48 -5 -115 -45 -161 -18 -20
-35 -42 -37 -50 -3 -8 -9 -11 -14 -6 -4 4 6 36 24 70 33 65 51 127 36 127 -8
0 -39 -71 -58 -132 -7 -22 -29 -23 -46 -4 -13 16 -148 71 -156 63 -7 -7 36
-32 91 -52 28 -10 60 -27 73 -38 42 -38 19 -90 -45 -103 -24 -5 -35 -1 -52 18
l-22 23 27 24 28 24 10 -22 c11 -26 26 -27 26 -1 0 20 -27 40 -54 40 -24 0
-56 -37 -56 -65 0 -55 81 -85 135 -49 l25 16 -11 -32 c-14 -38 -5 -111 16
-144 32 -48 112 -72 162 -48 64 31 69 120 8 149 -31 15 -36 15 -59 -1 -41 -27
-32 -86 13 -86 24 1 24 2 9 14 -35 26 -16 66 22 46 29 -16 27 -65 -5 -86 -33
-22 -78 -10 -110 28 -33 39 -35 121 -4 185 41 85 103 140 223 198 61 29 126
67 143 84 36 34 76 106 70 124 -2 7 -13 -7 -25 -30 -24 -46 -89 -103 -142
-123 -70 -27 -154 -73 -171 -94 -21 -24 -25 -9 -7 28 15 34 39 48 122 75 61
20 124 51 103 51 -23 0 -149 -41 -172 -56 -28 -18 -28 -18 -17 3 12 21 38 33
164 73 37 12 71 26 75 32 4 8 0 9 -13 4 -10 -4 -44 -13 -75 -20 -30 -8 -65
-18 -77 -25 -11 -6 -23 -11 -26 -11 -6 0 1 147 10 203 7 44 2 47 -15 10z m-31
-753 c-8 -5 -19 -10 -25 -10 -5 0 -3 5 5 10 8 5 20 10 25 10 6 0 3 -5 -5 -10z"/>
<path d="M2473 2220 c-61 -37 -96 -145 -73 -229 16 -59 23 -46 9 19 -6 28 -7
56 -3 60 5 5 10 -11 11 -36 1 -24 11 -65 23 -90 12 -29 15 -43 7 -38 -7 5 -3
0 10 -11 13 -12 23 -26 23 -32 0 -6 11 -24 24 -40 31 -37 54 -84 65 -130 l9
-38 1 41 c1 30 -12 67 -47 140 -56 113 -67 165 -51 229 13 51 84 125 121 125
23 1 22 1 -5 25 -34 30 -80 32 -124 5z m42 -13 c-19 -12 -44 -38 -84 -87 l-21
-25 20 42 c21 45 63 83 89 82 13 0 12 -2 -4 -12z m35 -14 c-12 -9 -35 -36 -51
-61 -28 -44 -40 -51 -19 -11 7 13 7 19 1 19 -16 0 -26 -48 -26 -117 0 -74 -14
-69 -20 7 -2 38 2 64 15 90 18 34 69 80 90 80 5 0 10 5 10 11 0 5 5 7 11 4 6
-5 2 -13 -11 -22z"/>
<path d="M2610 2233 c0 -8 50 -58 108 -107 35 -30 25 -5 -16 40 -40 44 -92 82
-92 67z"/>
<path d="M2700 2235 c0 -3 11 -27 24 -53 28 -57 40 -102 27 -102 -5 0 -12 4
-16 9 -7 12 -115 71 -129 71 -22 0 50 -49 104 -71 30 -12 66 -31 79 -43 l24
-21 -7 67 c-6 63 -29 138 -42 138 -3 0 -3 -12 1 -27 31 -117 35 -190 5 -95
-21 65 -52 132 -61 132 -5 0 -9 -2 -9 -5z"/>
<path d="M3435 2219 c-19 -20 -18 -21 23 -57 49 -44 72 -93 72 -159 0 -36 -12
-73 -51 -156 -33 -69 -53 -125 -55 -155 l-4 -47 14 47 c8 26 26 67 40 90 15
24 30 50 35 58 5 8 12 23 15 34 4 11 12 16 22 12 10 -4 15 0 13 12 -1 9 6 43
15 75 27 87 16 136 -40 192 -42 43 -64 55 -64 37 0 -5 11 -14 24 -22 14 -7 22
-18 19 -26 -4 -10 -13 -7 -34 13 -25 24 -27 30 -14 42 21 21 71 -3 102 -51 20
-30 26 -51 27 -103 1 -81 16 -87 16 -6 0 66 -17 116 -52 147 -52 48 -94 56
-123 23z m125 -109 c9 -27 10 -55 4 -97 l-9 -58 -3 74 c-2 47 -9 82 -18 95
-16 21 -16 21 -9 -4 5 -20 4 -22 -5 -8 -12 20 -3 49 14 42 7 -3 19 -22 26 -44z"/>
<path d="M2828 2106 c4 -98 1 -105 -38 -81 -32 20 -164 84 -168 81 -9 -9 63
-55 110 -70 29 -10 67 -28 83 -40 l30 -23 3 61 c3 70 -6 166 -16 166 -4 0 -5
-42 -4 -94z"/>
<path d="M2546 2123 c-58 -63 -59 -149 -2 -259 20 -37 36 -76 36 -86 0 -10 4
-18 9 -18 12 0 -4 71 -36 152 -31 80 -29 152 6 199 30 40 20 48 -13 12z"/>
<path d="M2871 2058 c-8 -54 -18 -98 -24 -98 -5 0 -25 9 -43 21 -18 11 -46 24
-61 29 -15 4 -46 15 -68 24 l-40 17 30 -26 c17 -14 41 -28 55 -31 54 -14 139
-58 144 -76 3 -15 2 -17 -9 -8 -15 12 -174 80 -188 80 -28 0 24 -31 96 -59 45
-17 92 -38 105 -46 31 -22 28 -41 -4 -20 -14 9 -49 25 -77 35 -101 35 -95 34
-69 12 12 -11 51 -30 86 -42 36 -11 76 -33 91 -48 14 -14 25 -22 23 -17 -1 6
10 44 26 86 16 44 26 90 24 110 -2 28 -7 19 -28 -58 -24 -91 -40 -117 -40 -69
0 13 7 43 15 66 19 55 31 150 18 150 -5 0 -18 -45 -29 -100 -14 -76 -20 -95
-27 -78 -4 12 -1 53 7 97 10 48 13 89 8 111 -7 31 -10 23 -21 -62z"/>
<path d="M3444 2114 c36 -54 35 -124 -4 -234 -16 -47 -29 -96 -29 -110 1 -24
1 -23 11 5 5 17 26 64 46 105 48 99 49 161 7 221 -17 23 -36 44 -44 47 -8 3
-2 -12 13 -34z"/>
<path d="M3271 2109 c-41 -10 -81 -25 -89 -31 -13 -11 -15 -10 -9 5 3 9 2 17
-3 17 -10 0 -34 -39 -28 -45 5 -6 189 49 213 63 29 16 4 14 -84 -9z"/>
<path d="M2300 2025 c0 -65 27 -123 91 -196 52 -60 86 -81 51 -31 -20 28 -49
81 -39 72 29 -28 77 -104 68 -109 -7 -5 -2 -24 14 -56 44 -87 30 -168 -41
-239 l-39 -38 33 17 c69 34 122 110 122 173 0 66 -32 131 -101 207 -51 55 -69
70 -72 57 -3 -11 -7 -6 -12 16 -4 17 -11 32 -14 32 -11 0 -41 68 -41 93 0 12
-5 29 -10 37 -7 11 -10 1 -10 -35z m202 -295 c10 -10 14 -22 9 -24 -4 -3 -13
6 -19 19 -14 30 -12 31 10 5z m38 -88 c0 -15 -2 -15 -10 -2 -13 20 -13 33 0
25 6 -3 10 -14 10 -23z m-3 -44 c-3 -8 -6 -5 -6 6 -1 11 2 17 5 13 3 -3 4 -12
1 -19z"/>
<path d="M3692 2050 c-3 -30 -45 -125 -61 -134 -5 -4 -8 -13 -5 -20 3 -9 -1
-13 -12 -13 -9 1 -19 -4 -22 -12 -3 -9 0 -11 8 -6 8 5 6 -4 -4 -21 -27 -45
-66 -90 -66 -77 0 12 17 37 49 70 7 7 10 17 6 21 -10 10 -91 -85 -115 -135
-24 -51 -27 -141 -6 -181 18 -35 62 -75 104 -97 33 -16 32 -15 -11 27 -98 94
-84 206 43 343 80 87 102 131 97 203 -2 31 -4 46 -5 32z m-192 -350 c-11 -21
-20 -48 -20 -60 0 -11 -4 -20 -10 -20 -14 0 -12 16 5 51 9 16 13 35 9 41 -4 7
-3 8 4 4 7 -4 12 -1 12 8 0 9 5 16 10 16 6 0 1 -18 -10 -40z"/>
<path d="M3576 1935 c-9 -26 -7 -32 5 -12 6 10 9 21 6 23 -2 3 -7 -2 -11 -11z"/>
<path d="M3192 1885 c-56 -28 -119 -67 -138 -86 -71 -69 -114 -197 -81 -242
10 -15 11 -9 9 35 -5 70 23 112 101 153 53 28 86 58 87 79 0 5 -8 2 -18 -7
-10 -10 -24 -17 -31 -17 -7 0 -9 -5 -5 -12 4 -7 3 -8 -4 -4 -7 4 -29 -6 -49
-21 -38 -28 -38 -28 -22 -3 9 14 38 41 65 60 59 43 132 49 158 15 20 -26 20
-50 0 -69 -35 -35 -81 -5 -55 35 9 15 8 19 -4 19 -19 0 -31 -48 -18 -69 6 -9
27 -17 47 -19 51 -4 80 27 71 78 -8 40 -21 60 -41 60 -21 0 -27 20 -7 27 21 8
62 44 47 42 -5 -1 -55 -25 -112 -54z"/>
<path d="M2320 1865 c0 -6 15 -33 34 -61 19 -27 41 -70 50 -95 8 -24 15 -37
16 -29 0 8 7 -2 15 -23 29 -84 -33 -182 -123 -195 -20 -3 -66 -5 -101 -5 -65
1 -65 1 -35 -15 49 -26 140 -21 204 10 85 42 122 115 101 196 -12 45 -161 245
-161 217z m150 -258 c0 -31 -23 -91 -39 -101 -5 -4 -1 14 10 40 13 28 19 57
15 73 -17 79 -17 78 -2 46 9 -16 15 -43 16 -58z"/>
<path d="M3610 1787 c-36 -44 -70 -92 -77 -106 -17 -36 -16 -116 2 -150 38
-75 148 -121 242 -102 90 18 97 30 18 29 -119 -2 -146 6 -186 51 -41 45 -54
90 -40 136 8 26 9 27 10 7 2 -57 25 -115 59 -148 19 -19 40 -34 46 -34 6 0 -2
10 -17 21 -34 26 -61 78 -76 147 -9 45 -9 56 4 68 8 9 15 21 15 29 0 7 16 36
36 65 56 82 35 74 -36 -13z m-44 -110 c-14 -42 -32 -64 -22 -27 9 30 28 71 32
67 2 -1 -3 -19 -10 -40z m-16 -82 c0 -15 7 -40 17 -58 15 -29 15 -31 0 -18 -9
7 -21 30 -27 50 -12 45 -12 51 0 51 6 0 10 -11 10 -25z"/>
<path d="M2334 1787 c3 -10 9 -43 12 -73 4 -29 11 -51 15 -48 14 8 11 1 -21
-65 -34 -69 -71 -108 -115 -120 -25 -8 -26 -9 -7 -10 68 -3 144 63 163 141 10
44 9 56 -11 111 -12 34 -27 67 -33 72 -7 7 -8 4 -3 -8z"/>
<path d="M3641 1744 c-45 -106 -13 -207 79 -254 22 -11 50 -20 62 -20 18 0 14
5 -17 19 -49 22 -58 32 -95 110 l-30 61 19 70 c10 39 15 70 12 70 -4 0 -18
-25 -30 -56z"/>
<path d="M3072 1713 c-37 -18 -72 -58 -72 -82 0 -10 6 -6 19 12 10 15 28 35
40 43 27 20 80 21 92 3 13 -21 11 -39 -5 -39 -8 0 -17 6 -19 13 -3 6 -6 2 -6
-10 -2 -44 54 -41 65 4 6 21 1 31 -20 50 -32 27 -49 28 -94 6z"/>
<path d="M2412 1627 c-3 -37 -27 -84 -66 -126 -21 -23 -25 -30 -11 -23 46 24
88 98 82 145 -4 30 -4 30 -5 4z"/>
<path d="M3736 1578 c3 -5 10 -6 15 -3 13 9 11 12 -6 12 -8 0 -12 -4 -9 -9z"/>
<path d="M2150 1506 c0 -2 7 -7 16 -10 8 -3 12 -2 9 4 -6 10 -25 14 -25 6z"/>
<path d="M3835 1501 c-3 -5 -2 -12 3 -15 5 -3 9 1 9 9 0 17 -3 19 -12 6z"/>
<path d="M2856 1228 c-7 -18 -41 -92 -75 -165 -33 -72 -61 -135 -61 -138 0 -4
-9 -20 -20 -35 -12 -17 -16 -31 -11 -35 16 -9 48 30 67 82 l17 48 97 0 96 0
26 -60 c22 -51 31 -61 57 -66 17 -4 33 -4 35 0 6 11 -189 400 -201 401 -7 0
-19 -15 -27 -32z m30 -18 c0 -12 -4 -16 -9 -11 -5 5 -6 14 -3 20 10 15 12 14
12 -9z m9 -80 c11 -25 29 -62 42 -82 l22 -37 -84 -3 c-47 -2 -85 -1 -85 2 -1
16 75 179 80 172 4 -4 15 -27 25 -52z m22 18 c-3 -8 -6 -5 -6 6 -1 11 2 17 5
13 3 -3 4 -12 1 -19z m29 -54 c-4 -9 -9 -15 -11 -12 -3 3 -3 13 1 22 4 9 9 15
11 12 3 -3 3 -13 -1 -22z m26 -56 c-7 -7 -12 -8 -12 -2 0 14 12 26 19 19 2 -3
-1 -11 -7 -17z m21 -61 c-4 -6 -10 -2 -14 9 -12 31 -9 40 6 20 8 -10 11 -24 8
-29z m43 -85 c-7 -7 -32 54 -28 67 3 8 11 -4 18 -25 7 -21 12 -40 10 -42z"/>
<path d="M2135 1063 c-9 -104 -19 -191 -22 -195 -2 -5 4 -8 15 -8 17 0 19 15
31 162 7 90 14 164 15 165 1 2 40 -74 86 -167 46 -94 89 -169 95 -167 5 2 48
87 94 189 66 144 88 184 101 181 17 -4 25 -43 9 -43 -5 0 -9 7 -9 15 0 24 -16
17 -17 -7 0 -13 3 -73 9 -135 5 -61 10 -130 11 -152 1 -40 2 -41 35 -41 33 0
34 0 28 38 -11 69 -26 244 -26 298 l0 54 -39 0 -38 0 -69 -155 c-38 -85 -71
-155 -74 -155 -3 0 -39 70 -80 155 -73 150 -76 155 -106 155 l-31 0 -18 -187z
m70 146 c-4 -13 -3 -19 2 -16 5 4 10 -1 10 -9 0 -13 -2 -13 -15 0 -8 8 -12 22
-9 30 9 24 19 19 12 -5z m365 -84 c0 -8 -2 -15 -4 -15 -2 0 -6 7 -10 15 -3 8
-1 15 4 15 6 0 10 -7 10 -15z m-307 -40 c-3 -9 -8 -14 -10 -11 -3 3 -2 9 2 15
9 16 15 13 8 -4z m308 -22 c-9 -16 -10 -14 -11 12 0 21 3 26 11 18 8 -8 8 -16
0 -30z m7 -48 c-3 -3 -9 2 -12 12 -6 14 -5 15 5 6 7 -7 10 -15 7 -18z m-268
-30 c0 -5 -5 -3 -10 5 -5 8 -10 20 -10 25 0 6 5 3 10 -5 5 -8 10 -19 10 -25z
m280 -69 c0 -39 -6 -30 -13 19 -4 27 -3 35 3 25 5 -8 10 -28 10 -44z m-242 16
c6 -18 -15 -14 -22 4 -4 10 -1 14 6 12 6 -2 14 -10 16 -16z m16 -27 c-7 -16
-24 -21 -24 -6 0 8 7 13 27 20 1 1 0 -6 -3 -14z"/>
<path d="M3168 1055 l3 -195 30 0 30 0 -2 96 -2 96 112 2 112 1 -3 -98 -3 -97
33 0 32 0 0 195 0 195 -30 0 -30 0 0 -85 0 -85 -127 0 c-87 0 -123 -3 -113
-10 8 -5 10 -10 5 -10 -6 0 -9 -19 -7 -44 2 -25 -1 -53 -6 -63 -8 -13 -11 15
-11 103 0 67 -3 129 -7 138 -3 9 -1 16 6 16 6 0 8 5 5 10 -3 6 -3 10 2 10 4 0
7 -31 7 -70 -1 -53 2 -70 12 -70 11 0 14 19 14 80 l0 80 -32 0 -33 0 3 -195z
m319 -11 c0 -94 -4 -161 -9 -156 -4 4 -8 71 -8 148 1 168 2 174 10 174 3 0 6
-75 7 -166z m-281 -151 c-11 -11 -19 6 -11 24 8 17 8 17 12 0 3 -10 2 -21 -1
-24z"/>
<path d="M3620 1055 l0 -195 130 0 c72 0 133 0 138 0 4 0 7 6 7 12 0 10 -26
12 -107 10 l-108 -4 0 90 0 90 75 -5 c64 -4 75 -3 75 11 0 13 -13 16 -75 16
l-75 0 0 76 0 75 102 -2 c69 -1 103 2 106 10 3 8 -35 11 -132 11 l-136 0 0
-195z m37 113 c-3 -8 -6 -5 -6 6 -1 11 2 17 5 13 3 -3 4 -12 1 -19z m0 -115
c-2 -16 -4 -5 -4 22 0 28 2 40 4 28 2 -13 2 -35 0 -50z m0 -145 c-2 -18 -4 -6
-4 27 0 33 2 48 4 33 2 -15 2 -42 0 -60z"/>
<path d="M2126 757 c-37 -27 -1 -90 40 -72 17 8 16 9 -8 12 -14 3 -29 10 -32
18 -7 18 20 39 40 31 10 -4 14 -1 12 6 -6 18 -30 21 -52 5z"/>
<path d="M2206 748 c-13 -19 -14 -25 -2 -43 26 -39 76 -26 76 19 0 46 -48 62
-74 24z m51 -9 c16 -16 5 -39 -17 -39 -23 0 -34 16 -26 35 6 18 28 19 43 4z"/>
<path d="M2310 733 c-8 -21 -17 -42 -19 -46 -2 -5 6 -3 18 5 17 10 25 10 41 0
11 -7 20 -9 20 -5 0 12 -34 83 -40 83 -3 0 -12 -17 -20 -37z m30 -8 c0 -8 -4
-15 -10 -15 -5 0 -10 7 -10 15 0 8 5 15 10 15 6 0 10 -7 10 -15z"/>
<path d="M2398 763 c-28 -7 -19 -33 17 -48 18 -7 17 -9 -10 -15 -26 -6 -27 -8
-11 -15 19 -8 48 3 50 20 0 6 -9 14 -21 20 -29 12 -30 29 -2 22 12 -3 19 -1
16 6 -4 13 -16 16 -39 10z"/>
<path d="M2454 758 c-3 -4 2 -8 10 -8 12 0 16 -10 16 -36 0 -23 4 -33 11 -28
6 3 9 19 7 35 -3 20 0 29 9 29 7 0 13 4 13 9 0 12 -59 11 -66 -1z"/>
<path d="M2543 731 c-11 -23 -17 -44 -12 -47 5 -3 9 0 9 5 0 6 11 11 25 11 14
0 25 -4 25 -10 0 -5 5 -10 10 -10 15 0 12 11 -13 54 l-24 38 -20 -41z m31 -12
c-3 -5 -10 -7 -15 -3 -5 3 -7 10 -3 15 3 5 10 7 15 3 5 -3 7 -10 3 -15z"/>
<path d="M2622 728 c3 -39 6 -43 31 -46 15 -2 27 1 27 7 0 6 -9 11 -20 11 -15
0 -20 7 -20 29 0 17 -5 33 -11 36 -7 5 -9 -8 -7 -37z"/>
<path d="M2737 760 c-4 -8 -5 -28 -3 -45 2 -24 8 -31 30 -33 14 -2 26 1 26 7
0 6 -9 11 -19 11 -16 0 -21 8 -23 38 -3 23 -6 31 -11 22z"/>
<path d="M2810 725 c0 -27 3 -45 7 -42 3 4 6 23 6 42 0 19 -3 38 -6 42 -4 3
-7 -15 -7 -42z"/>
<path d="M2842 763 c2 -5 10 -25 18 -45 8 -21 17 -38 20 -38 11 0 44 79 37 87
-4 3 -13 -9 -21 -28 l-15 -34 -13 33 c-7 17 -16 32 -21 32 -5 0 -7 -3 -5 -7z"/>
<path d="M2939 764 c-4 -46 -2 -74 5 -74 11 0 13 67 3 77 -4 3 -7 2 -8 -3z"/>
<path d="M2980 733 c0 -23 -3 -50 -6 -60 -5 -14 -3 -13 10 4 9 12 13 30 10 40
-4 13 2 10 20 -9 14 -16 28 -28 31 -28 3 0 4 21 3 48 -1 39 -2 41 -5 13 l-5
-34 -29 34 -29 34 0 -42z"/>
<path d="M3088 759 c-34 -19 -16 -79 23 -79 25 0 45 28 31 42 -9 9 -12 8 -12
-5 0 -11 -8 -17 -21 -17 -15 0 -20 5 -17 23 2 15 10 22 25 22 12 0 25 4 29 8
4 4 2 7 -4 7 -5 0 -16 2 -24 5 -7 2 -21 0 -30 -6z"/>
<path d="M3215 760 c-3 -5 -3 -15 0 -20 4 -6 1 -18 -6 -26 -15 -19 -7 -27 31
-29 22 -1 30 3 30 15 0 10 -9 20 -20 23 -11 3 -20 11 -19 19 0 10 2 10 6 0 2
-6 9 -10 13 -7 13 8 0 35 -15 35 -8 0 -17 -4 -20 -10z m30 -50 c3 -5 -1 -10
-9 -10 -9 0 -16 5 -16 10 0 6 4 10 9 10 6 0 13 -4 16 -10z"/>
<path d="M3337 763 c-4 -3 -7 -24 -7 -45 0 -36 2 -38 30 -38 17 0 30 5 30 10
0 6 -9 10 -20 10 -27 0 -25 18 3 23 l22 4 -22 2 c-28 1 -31 21 -3 21 11 0 20
5 20 10 0 11 -43 14 -53 3z"/>
<path d="M3417 763 c-15 -14 -6 -41 16 -48 l22 -8 -22 -4 c-33 -6 -28 -25 4
-21 37 4 43 35 9 44 -29 7 -25 24 5 24 11 0 17 5 14 10 -7 11 -38 13 -48 3z"/>
<path d="M3512 763 c-42 -17 -32 -83 13 -83 34 0 41 18 8 22 -34 4 -41 42 -8
44 38 3 40 4 25 14 -16 11 -19 11 -38 3z"/>
<path d="M3587 735 c-20 -43 -23 -65 -5 -47 16 16 45 15 51 0 2 -7 7 -10 11
-7 6 6 -25 89 -35 89 -3 0 -13 -16 -22 -35z m33 -16 c0 -5 -4 -9 -10 -9 -5 0
-10 7 -10 16 0 8 5 12 10 9 6 -3 10 -10 10 -16z"/>
<path d="M3666 762 c-8 -13 -4 -72 6 -78 4 -3 8 2 8 10 0 8 10 16 22 18 26 3
37 36 16 49 -17 11 -45 11 -52 1z m44 -27 c0 -8 -7 -15 -15 -15 -8 0 -15 7
-15 15 0 8 7 15 15 15 8 0 15 -7 15 -15z"/>
<path d="M3750 723 c0 -41 1 -43 30 -43 17 0 30 5 30 10 0 6 -12 10 -27 10
-29 0 -22 15 12 23 18 4 18 5 -2 6 -28 1 -31 21 -3 21 11 0 20 4 20 9 0 5 -13
9 -30 9 -29 -1 -30 -3 -30 -45z"/>
<path d="M3843 763 c-20 -7 -15 -29 10 -46 l22 -16 -22 0 c-13 -1 -23 -6 -23
-12 0 -6 12 -9 27 -7 34 4 43 33 14 43 -12 3 -21 11 -21 17 0 5 7 8 15 5 8 -4
17 -2 20 2 4 7 -20 24 -28 20 -1 0 -8 -3 -14 -6z"/>
<path d="M3165 740 c-3 -6 1 -7 9 -4 18 7 21 14 7 14 -6 0 -13 -4 -16 -10z"/>
<path d="M3485 655 c0 -13 3 -21 8 -18 4 2 7 10 7 18 0 8 -3 16 -7 18 -5 3 -8
-5 -8 -18z"/>
<path d="M1603 755 c0 -22 2 -30 4 -17 2 12 2 30 0 40 -3 9 -5 -1 -4 -23z"/>
<path d="M1601 554 c0 -11 3 -14 6 -6 3 7 2 16 -1 19 -3 4 -6 -2 -5 -13z"/>
<path d="M1601 384 c0 -11 3 -14 6 -6 3 7 2 16 -1 19 -3 4 -6 -2 -5 -13z"/>
</g>
</svg>
